ISO-10303-21;
HEADER;
FILE_DESCRIPTION(('ViewDefinition[DesignTransferView]'),'2;1');
FILE_NAME('/dev/null','2026-08-04T14:42:33+02:00',(''),(''),'IfcOpenShell 0.8.4','IfcOpenShell 0.8.4','Nobody');
FILE_SCHEMA(('IFC4X3_ADD2'));
ENDSEC;
DATA;
#1=IFCPROJECT('0uyPEjF0fDHOYgU$UEnbEt',$,'HS.C31.00.01-B-110-T-9001',$,$,$,$,(#10,#30),#5);
#2=IFCSIUNIT(*,.LENGTHUNIT.,$,.METRE.);
#3=IFCSIUNIT(*,.AREAUNIT.,$,.SQUARE_METRE.);
#4=IFCSIUNIT(*,.VOLUMEUNIT.,$,.CUBIC_METRE.);
#5=IFCUNITASSIGNMENT((#4,#2,#3));
#6=IFCCARTESIANPOINT((0.,0.,0.));
#7=IFCDIRECTION((0.,0.,1.));
#8=IFCDIRECTION((1.,0.,0.));
#9=IFCAXIS2PLACEMENT3D(#6,#7,#8);
#10=IFCGEOMETRICREPRESENTATIONCONTEXT($,'Model',3,1.E-05,#9,$);
#11=IFCGEOMETRICREPRESENTATIONSUBCONTEXT('Body','Model',*,*,*,*,#10,$,.MODEL_VIEW.,$);
#12=IFCGEOMETRICREPRESENTATIONSUBCONTEXT('Body-Fallback','Model',*,*,*,*,#10,$,.MODEL_VIEW.,$);
#13=IFCSITE('0TeyJ$4Of9tA0L$WGTMqZB',$,'Site',$,$,$,$,$,$,$,$,$,$,$);
#14=IFCBUILDING('2TZhw0NZf1uQkVX6mmM3OB',$,'Alignment Building',$,$,$,$,$,$,$,$,$);
#15=IFCBUILDINGSTOREY('0irunfFMb8hfcsX0i8BDDz',$,'Terrain Storey',$,$,$,$,$,$,$);
#16=IFCRELAGGREGATES('1tKMpwOBLDGOJBjMSh8pBn',$,$,$,#1,(#13,#19));
#17=IFCRELAGGREGATES('0cUOGlGt1CJwwvHilIHYKs',$,$,$,#13,(#14));
#18=IFCRELAGGREGATES('0OSSa78T55EeziF3sZrH6s',$,$,$,#14,(#15));
#19=IFCALIGNMENT('3J0trvf6zBcgp1709OdQ48',$,'FL1 - \X2\00D6\X0\vre del',$,$,#106,#34,$);
#20=IFCALIGNMENTHORIZONTAL('2_9BCk2CrFqBMJbQ9NPOVN',$,$,$,$,$,$);
#21=IFCALIGNMENTVERTICAL('0q2iA34oX118gQwxA_jysS',$,$,$,$,$,$);
#22=IFCRELNESTS('2wqtNWzX56Mf6eIWVoXjaK',$,$,$,#19,(#20,#21));
#26=IFCCARTESIANPOINT((0.,0.,0.));
#27=IFCDIRECTION((0.,0.,1.));
#28=IFCDIRECTION((1.,0.,0.));
#29=IFCAXIS2PLACEMENT3D(#26,#27,#28);
#30=IFCGEOMETRICREPRESENTATIONCONTEXT($,'Model',3,1.E-05,#29,$);
#31=IFCGEOMETRICREPRESENTATIONSUBCONTEXT('Axis','Model',*,*,*,*,#30,$,.MODEL_VIEW.,$);
#32=IFCCOMPOSITECURVE((#116,#138,#160,#182,#204,#226,#248,#270,#292,#314,#336,#358,#380,#61),.F.);
#33=IFCSHAPEREPRESENTATION(#31,'FootPrint','Curve2D',(#32));
#34=IFCPRODUCTDEFINITIONSHAPE($,$,(#33,#36,#810));
#35=IFCGRADIENTCURVE((#402,#424,#446,#468,#490,#512,#534,#556,#578,#600,#622,#644,#666,#688,#710,#732,#754,#84),.F.,#32,$);
#36=IFCSHAPEREPRESENTATION(#31,'Axis','Curve3D',(#35));
#37=IFCPOINTBYDISTANCEEXPRESSION(IFCLENGTHMEASURE(0.),$,$,$,#32);
#38=IFCAXIS2PLACEMENTLINEAR(#37,$,$);
#39=IFCLINEARPLACEMENT($,#38,#43);
#40=IFCCARTESIANPOINT((0.,0.,0.));
#41=IFCDIRECTION((0.,0.,1.));
#42=IFCDIRECTION((-0.183874005223543,0.982949820796084,0.));
#43=IFCAXIS2PLACEMENT3D(#40,#41,#42);
#44=IFCREFERENT('30XIeGJu93DuYqXIFon1uJ',$,'0+000.000',$,$,#39,$,.STATION.);
#45=IFCPROPERTYSET('1$IxGg3vbC78dTnQp$eXPB',$,'Pset_Stationing',$,(#47));
#46=IFCRELDEFINESBYPROPERTIES('3NRsOzWgT2$A8Fy7njwjgh',$,$,$,(#44),#45);
#47=IFCPROPERTYSINGLEVALUE('Station',$,IFCLENGTHMEASURE(0.),$);
#48=IFCRELNESTS('2umihjtSr6lgwMjbnAMEzS',$,$,$,#19,(#44,#124,#410,#146,#432,#168,#454,#190,#476,#212,#498,#234,#520,#256,#542,#278,#564,#300,#586,#322,#608,#630,#344,#652,#674,#366,#696,#388,#718,#740,#762,#69,#92));
#49=IFCRELPOSITIONS('2sDp1t3_TFcg03HJZ41hJK',$,$,$,#44,(#19));
#50=IFCCARTESIANPOINT((-86.1943087382404,208.5311230817));
#51=IFCALIGNMENTHORIZONTALSEGMENT($,$,#50,19.0559106401722,0.,0.,0.,$,.LINE.);
#52=IFCALIGNMENTSEGMENT('33JYPVmb9E7fY1m5ZhHN1h',$,$,$,$,$,$,#51);
#53=IFCRELNESTS('1PWKpP_JX0ue3h_K8La6yZ',$,$,$,#20,(#109,#131,#153,#175,#197,#219,#241,#263,#285,#307,#329,#351,#373,#52));
#54=IFCCARTESIANPOINT((0.,0.));
#55=IFCDIRECTION((1.,0.));
#56=IFCVECTOR(#55,1.);
#57=IFCLINE(#54,#56);
#58=IFCCARTESIANPOINT((-86.1943087382404,208.5311230817));
#59=IFCDIRECTION((0.0524050479806578,0.998625911413351));
#60=IFCAXIS2PLACEMENT2D(#58,#59);
#61=IFCCURVESEGMENT(.DISCONTINUOUS.,#60,IFCLENGTHMEASURE(0.),IFCLENGTHMEASURE(0.),#57);
#62=IFCPOINTBYDISTANCEEXPRESSION(IFCLENGTHMEASURE(414.51123925),$,$,$,#32);
#63=IFCAXIS2PLACEMENTLINEAR(#62,$,$);
#64=IFCLINEARPLACEMENT($,#63,#68);
#65=IFCCARTESIANPOINT((-86.1943087382404,208.5311230817,0.));
#66=IFCDIRECTION((0.,0.,1.));
#67=IFCDIRECTION((0.0524050479806578,0.998625911413351,0.));
#68=IFCAXIS2PLACEMENT3D(#65,#66,#67);
#69=IFCREFERENT('36CGadNQ597AP$F0In__b_',$,'P.O.E. (0+414.511)',$,$,#64,$,.STATION.);
#70=IFCPROPERTYSET('1tWJTDaEjAqPppNy6eeBvE',$,'Pset_Stationing',$,(#72));
#71=IFCRELDEFINESBYPROPERTIES('2OBdm89ZTEMB_o87cxU$Wc',$,$,$,(#69),#70);
#72=IFCPROPERTYSINGLEVALUE('Station',$,IFCLENGTHMEASURE(414.51123925),$);
#73=IFCRELPOSITIONS('30moquZhr5auKy1dN8eiL2',$,$,$,#69,(#52));
#74=IFCALIGNMENTVERTICALSEGMENT($,$,414.511239254,0.,-41.2,-0.000293283401469771,-0.000293283401469771,$,.CONSTANTGRADIENT.);
#75=IFCALIGNMENTSEGMENT('39LxZ6Xq12C8GGa8yiWrnD',$,$,$,$,$,$,#74);
#76=IFCRELNESTS('2afttJzs98m9t$HleoHzXm',$,$,$,#21,(#394,#416,#438,#460,#482,#504,#526,#548,#570,#592,#614,#636,#658,#680,#702,#724,#746,#75));
#77=IFCCARTESIANPOINT((0.,0.));
#78=IFCDIRECTION((1.,0.));
#79=IFCVECTOR(#78,1.);
#80=IFCLINE(#77,#79);
#81=IFCCARTESIANPOINT((414.511239254,-41.2));
#82=IFCDIRECTION((0.999999956992426,-0.000293283388856364));
#83=IFCAXIS2PLACEMENT2D(#81,#82);
#84=IFCCURVESEGMENT(.DISCONTINUOUS.,#83,IFCLENGTHMEASURE(0.),IFCLENGTHMEASURE(0.),#80);
#85=IFCPOINTBYDISTANCEEXPRESSION(IFCLENGTHMEASURE(414.511239254),$,$,$,#32);
#86=IFCAXIS2PLACEMENTLINEAR(#85,$,$);
#87=IFCLINEARPLACEMENT($,#86,#91);
#88=IFCCARTESIANPOINT((-86.1943087380308,208.531123085694,0.));
#89=IFCDIRECTION((0.,0.,1.));
#90=IFCDIRECTION((0.0524050479806578,0.998625911413351,0.));
#91=IFCAXIS2PLACEMENT3D(#88,#89,#90);
#92=IFCREFERENT('2aBz3irTv8TgjKnQevYfmQ',$,'V.P.O.E. (0+414.511)',$,$,#87,$,.STATION.);
#93=IFCPROPERTYSET('2WT$h3kRX4h86XteB3iFfB',$,'Pset_Stationing',$,(#95));
#94=IFCRELDEFINESBYPROPERTIES('00h9EbHFX4NgTQ9eWdf$si',$,$,$,(#92),#93);
#95=IFCPROPERTYSINGLEVALUE('Station',$,IFCLENGTHMEASURE(414.511239254),$);
#96=IFCRELPOSITIONS('2qia_HyOv1UvJhbrCJce4r',$,$,$,#92,(#75));
#97=IFCCARTESIANPOINT((0.,0.,0.));
#98=IFCDIRECTION((0.,0.,1.));
#99=IFCDIRECTION((1.,0.,0.));
#100=IFCAXIS2PLACEMENT3D(#97,#98,#99);
#101=IFCLOCALPLACEMENT($,#100);
#102=IFCCARTESIANPOINT((6576166.59114294,156078.137209932,0.));
#103=IFCDIRECTION((0.,0.,1.));
#104=IFCDIRECTION((1.,0.,0.));
#105=IFCAXIS2PLACEMENT3D(#102,#103,#104);
#106=IFCLOCALPLACEMENT($,#105);
#107=IFCCARTESIANPOINT((0.,0.));
#108=IFCALIGNMENTHORIZONTALSEGMENT($,$,#107,1.75572253991017,0.,0.,5.431406253,$,.LINE.);
#109=IFCALIGNMENTSEGMENT('2W_d6U2b9119hykKSQURfX',$,$,$,$,$,$,#108);
#110=IFCCARTESIANPOINT((0.,0.));
#111=IFCDIRECTION((1.,0.));
#112=IFCVECTOR(#111,1.);
#113=IFCLINE(#110,#112);
#114=IFCDIRECTION((-0.183874005223543,0.982949820796084));
#115=IFCAXIS2PLACEMENT2D(#107,#114);
#116=IFCCURVESEGMENT(.CONTINUOUS.,#115,IFCLENGTHMEASURE(0.),IFCLENGTHMEASURE(5.431406253),#113);
#117=IFCPOINTBYDISTANCEEXPRESSION(IFCLENGTHMEASURE(0.),$,$,$,#32);
#118=IFCAXIS2PLACEMENTLINEAR(#117,$,$);
#119=IFCLINEARPLACEMENT($,#118,#123);
#120=IFCCARTESIANPOINT((0.,0.,0.));
#121=IFCDIRECTION((0.,0.,1.));
#122=IFCDIRECTION((-0.183874005223543,0.982949820796084,0.));
#123=IFCAXIS2PLACEMENT3D(#120,#121,#122);
#124=IFCREFERENT('2xiX2b8G5BL8MY5RoWF60E',$,'P.O.B. (0+000.000)',$,$,#119,$,.STATION.);
#125=IFCPROPERTYSET('07j_d9i293$xml7XzAGS1m',$,'Pset_Stationing',$,(#127));
#126=IFCRELDEFINESBYPROPERTIES('3lIoc_MHX00OBb3$MPAviF',$,$,$,(#124),#125);
#127=IFCPROPERTYSINGLEVALUE('Station',$,IFCLENGTHMEASURE(0.),$);
#128=IFCRELPOSITIONS('0ue5h1fLT4Derdd2H4kafF',$,$,$,#124,(#109));
#129=IFCCARTESIANPOINT((-0.998694422654808,5.33879980299389));
#130=IFCALIGNMENTHORIZONTALSEGMENT($,$,#129,-1.38587011371435,-20.0000000011575,-20.0000000011575,16.011992981,$,.CIRCULARARC.);
#131=IFCALIGNMENTSEGMENT('3LO3Tig5jDPxeiktZpvQLI',$,$,$,$,$,$,#130);
#132=IFCCARTESIANPOINT((0.,0.));
#133=IFCDIRECTION((1.,0.));
#134=IFCAXIS2PLACEMENT2D(#132,#133);
#135=IFCCIRCLE(#134,20.0000000011575);
#136=IFCDIRECTION((0.183874005189408,-0.982949820802469));
#137=IFCAXIS2PLACEMENT2D(#129,#136);
#138=IFCCURVESEGMENT(.DISCONTINUOUS.,#137,IFCLENGTHMEASURE(0.),IFCLENGTHMEASURE(-16.011992981),#135);
#139=IFCPOINTBYDISTANCEEXPRESSION(IFCLENGTHMEASURE(5.431406253),$,$,$,#32);
#140=IFCAXIS2PLACEMENTLINEAR(#139,$,$);
#141=IFCLINEARPLACEMENT($,#140,#145);
#142=IFCCARTESIANPOINT((-0.998694421735304,5.33879980305708,0.));
#143=IFCDIRECTION((0.,0.,1.));
#144=IFCDIRECTION((-0.183874005223543,0.982949820796084,0.));
#145=IFCAXIS2PLACEMENT3D(#142,#143,#144);
#146=IFCREFERENT('3cZQBSDa9Bqwvq_ELPfaCY',$,'P.C. (0+005.431)',$,$,#141,$,.STATION.);
#147=IFCPROPERTYSET('2YB20w$Uf4GuWBqYpcipde',$,'Pset_Stationing',$,(#149));
#148=IFCRELDEFINESBYPROPERTIES('2ISKwakkf1l9szCVcESroc',$,$,$,(#146),#147);
#149=IFCPROPERTYSINGLEVALUE('Station',$,IFCLENGTHMEASURE(5.431406253),$);
#150=IFCRELPOSITIONS('0Jg$sndKn3wQfjvvzjGBuE',$,$,$,#146,(#131));
#151=IFCCARTESIANPOINT((-9.60919380281121,18.3325737979903));
#152=IFCALIGNMENTHORIZONTALSEGMENT($,$,#151,2.55632218888777,0.,0.,40.851013423,$,.LINE.);
#153=IFCALIGNMENTSEGMENT('0yDs68XXvA5A5OKUyBThCS',$,$,$,$,$,$,#152);
#154=IFCCARTESIANPOINT((0.,0.));
#155=IFCDIRECTION((1.,0.));
#156=IFCVECTOR(#155,1.);
#157=IFCLINE(#154,#156);
#158=IFCDIRECTION((-0.833562704953956,0.552424851821353));
#159=IFCAXIS2PLACEMENT2D(#151,#158);
#160=IFCCURVESEGMENT(.CONTINUOUS.,#159,IFCLENGTHMEASURE(0.),IFCLENGTHMEASURE(40.851013423),#157);
#161=IFCPOINTBYDISTANCEEXPRESSION(IFCLENGTHMEASURE(21.443399234),$,$,$,#32);
#162=IFCAXIS2PLACEMENTLINEAR(#161,$,$);
#163=IFCLINEARPLACEMENT($,#162,#167);
#164=IFCCARTESIANPOINT((-4.32999649639189,-9.88884902155701,0.));
#165=IFCDIRECTION((0.,0.,1.));
#166=IFCDIRECTION((-0.577508435994071,-0.816384717125255,0.));
#167=IFCAXIS2PLACEMENT3D(#164,#165,#166);
#168=IFCREFERENT('1E0fOXPof9jPkilD0FuIDF',$,'P.T. (0+021.443)',$,$,#163,$,.STATION.);
#169=IFCPROPERTYSET('27_RkssiX3nBxLqlBrBZXW',$,'Pset_Stationing',$,(#171));
#170=IFCRELDEFINESBYPROPERTIES('3uWVevyP906gpUVkB09$zs',$,$,$,(#168),#169);
#171=IFCPROPERTYSINGLEVALUE('Station',$,IFCLENGTHMEASURE(21.443399234),$);
#172=IFCRELPOSITIONS('0$wASwUGrA$upN3yMAoVlA',$,$,$,#168,(#153));
#173=IFCCARTESIANPOINT((-43.6610750528052,40.8996888349939));
#174=IFCALIGNMENTHORIZONTALSEGMENT($,$,#173,-0.585255769866598,20.0000000010705,20.0000000010705,60.965388767,$,.CIRCULARARC.);
#175=IFCALIGNMENTSEGMENT('2ALFyQ3CP6cwLftm0VDqA0',$,$,$,$,$,$,#174);
#176=IFCCARTESIANPOINT((0.,0.));
#177=IFCDIRECTION((1.,0.));
#178=IFCAXIS2PLACEMENT2D(#176,#177);
#179=IFCCIRCLE(#178,20.0000000010705);
#180=IFCDIRECTION((0.833570822656241,-0.55241260269494));
#181=IFCAXIS2PLACEMENT2D(#173,#180);
#182=IFCCURVESEGMENT(.DISCONTINUOUS.,#181,IFCLENGTHMEASURE(0.),IFCLENGTHMEASURE(60.965388767),#179);
#183=IFCPOINTBYDISTANCEEXPRESSION(IFCLENGTHMEASURE(62.294412657),$,$,$,#32);
#184=IFCAXIS2PLACEMENTLINEAR(#183,$,$);
#185=IFCLINEARPLACEMENT($,#184,#189);
#186=IFCCARTESIANPOINT((-43.6610750517975,40.8996888349432,0.));
#187=IFCDIRECTION((0.,0.,1.));
#188=IFCDIRECTION((-0.833562704953956,0.552424851821353,0.));
#189=IFCAXIS2PLACEMENT3D(#186,#187,#188);
#190=IFCREFERENT('2cgW7cAGX9wOKotdcnE0sR',$,'P.C. (0+062.294)',$,$,#185,$,.STATION.);
#191=IFCPROPERTYSET('3GyoKNZnv4jfvWvvY$T1mt',$,'Pset_Stationing',$,(#193));
#192=IFCRELDEFINESBYPROPERTIES('1HpLU6QZ12S9PEVxFh3mVk',$,$,$,(#190),#191);
#193=IFCPROPERTYSINGLEVALUE('Station',$,IFCLENGTHMEASURE(62.294412657),$);
#194=IFCRELPOSITIONS('0giMJ3axzCtwGz6Ix0UU8r',$,$,$,#190,(#175));
#195=IFCCARTESIANPOINT((-23.1662197047845,75.1995393160032));
#196=IFCALIGNMENTHORIZONTALSEGMENT($,$,#195,-0.491932554718649,0.,0.,6.991358094,$,.LINE.);
#197=IFCALIGNMENTSEGMENT('387zniWnTBGxMiMzvwZNW3',$,$,$,$,$,$,#196);
#198=IFCCARTESIANPOINT((0.,0.));
#199=IFCDIRECTION((1.,0.));
#200=IFCVECTOR(#199,1.);
#201=IFCLINE(#198,#200);
#202=IFCDIRECTION((0.881421701241717,-0.472330164800171));
#203=IFCAXIS2PLACEMENT2D(#195,#202);
#204=IFCCURVESEGMENT(.CONTINUOUS.,#203,IFCLENGTHMEASURE(0.),IFCLENGTHMEASURE(6.991358094),#201);
#205=IFCPOINTBYDISTANCEEXPRESSION(IFCLENGTHMEASURE(123.259801424),$,$,$,#32);
#206=IFCAXIS2PLACEMENTLINEAR(#205,$,$);
#207=IFCLINEARPLACEMENT($,#206,#211);
#208=IFCCARTESIANPOINT((-20.0590740526909,73.1404144404493,0.));
#209=IFCDIRECTION((0.,0.,1.));
#210=IFCDIRECTION((-0.778465457530248,0.627687447247611,0.));
#211=IFCAXIS2PLACEMENT3D(#208,#209,#210);
#212=IFCREFERENT('2eRmaD2uTAzvl_Jme8L2zq',$,'P.T. (0+123.260)',$,$,#207,$,.STATION.);
#213=IFCPROPERTYSET('0teBLeRD55cAbK9_nekSkr',$,'Pset_Stationing',$,(#215));
#214=IFCRELDEFINESBYPROPERTIES('2T9PsP36D3B9c_SaiWRg1g',$,$,$,(#212),#213);
#215=IFCPROPERTYSINGLEVALUE('Station',$,IFCLENGTHMEASURE(123.259801424),$);
#216=IFCRELPOSITIONS('0s8EZwhSv068nOqyImu3Dz',$,$,$,#212,(#197));
#217=IFCCARTESIANPOINT((-17.0038849608973,71.8973099949944));
#218=IFCALIGNMENTHORIZONTALSEGMENT($,$,#217,2.64966009892562,20.0000000007416,20.0000000007416,21.577275442,$,.CIRCULARARC.);
#219=IFCALIGNMENTSEGMENT('0YustWXF91wQ1CazHykeDZ',$,$,$,$,$,$,#218);
#220=IFCCARTESIANPOINT((0.,0.));
#221=IFCDIRECTION((1.,0.));
#222=IFCAXIS2PLACEMENT2D(#220,#221);
#223=IFCCIRCLE(#222,20.0000000007416);
#224=IFCDIRECTION((-0.88142170126745,0.472330164752151));
#225=IFCAXIS2PLACEMENT2D(#217,#224);
#226=IFCCURVESEGMENT(.DISCONTINUOUS.,#225,IFCLENGTHMEASURE(0.),IFCLENGTHMEASURE(21.577275442),#223);
#227=IFCPOINTBYDISTANCEEXPRESSION(IFCLENGTHMEASURE(130.251159518),$,$,$,#32);
#228=IFCAXIS2PLACEMENTLINEAR(#227,$,$);
#229=IFCLINEARPLACEMENT($,#228,#233);
#230=IFCCARTESIANPOINT((-17.0038849595809,71.8973099952872,0.));
#231=IFCDIRECTION((0.,0.,1.));
#232=IFCDIRECTION((0.881421701241717,-0.472330164800171,0.));
#233=IFCAXIS2PLACEMENT3D(#230,#231,#232);
#234=IFCREFERENT('1qJEWlbPf4L9v0b_WALXZw',$,'P.C. (0+130.251)',$,$,#229,$,.STATION.);
#235=IFCPROPERTYSET('36xKMmgiz3yvH5DO_Nvy3g',$,'Pset_Stationing',$,(#237));
#236=IFCRELDEFINESBYPROPERTIES('3QREFKsI10IgVUEOia7lSl',$,$,$,(#234),#235);
#237=IFCPROPERTYSINGLEVALUE('Station',$,IFCLENGTHMEASURE(130.251159518),$);
#238=IFCRELPOSITIONS('3CZrAI$wL4KOVx5mDeSTIv',$,$,$,#234,(#219));
#239=IFCCARTESIANPOINT((-6.45048825163394,54.2688759680022));
#240=IFCALIGNMENTHORIZONTALSEGMENT($,$,#239,-1.5707963267949,0.,0.,8.648772464,$,.LINE.);
#241=IFCALIGNMENTSEGMENT('09FsJFwyb4PAF_ipJ$td3a',$,$,$,$,$,$,#240);
#242=IFCCARTESIANPOINT((0.,0.));
#243=IFCDIRECTION((1.,0.));
#244=IFCVECTOR(#243,1.);
#245=IFCLINE(#242,#244);
#246=IFCDIRECTION((6.12323399573677E-17,-1.));
#247=IFCAXIS2PLACEMENT2D(#239,#246);
#248=IFCCURVESEGMENT(.CONTINUOUS.,#247,IFCLENGTHMEASURE(0.),IFCLENGTHMEASURE(8.648772464),#245);
#249=IFCPOINTBYDISTANCEEXPRESSION(IFCLENGTHMEASURE(151.82843496),$,$,$,#32);
#250=IFCAXIS2PLACEMENTLINEAR(#249,$,$);
#251=IFCLINEARPLACEMENT($,#250,#255);
#252=IFCCARTESIANPOINT((-37.5266568741316,70.9217582654237,0.));
#253=IFCDIRECTION((0.,0.,1.));
#254=IFCDIRECTION((-0.832644114790723,-0.553808430871518,0.));
#255=IFCAXIS2PLACEMENT3D(#252,#253,#254);
#256=IFCREFERENT('1fXaGH4vXAoxlwBS9UsHZn',$,'P.T. (0+151.828)',$,$,#251,$,.STATION.);
#257=IFCPROPERTYSET('2aAAkJVur6H8q069CbYf1n',$,'Pset_Stationing',$,(#259));
#258=IFCRELDEFINESBYPROPERTIES('3OkqUqyKz0RPu$7NTbiqx_',$,$,$,(#256),#257);
#259=IFCPROPERTYSINGLEVALUE('Station',$,IFCLENGTHMEASURE(151.82843496),$);
#260=IFCRELPOSITIONS('2oFiLbF956kuBxFIk5_5f2',$,$,$,#256,(#241));
#261=IFCCARTESIANPOINT((-6.45048825163394,45.620103504014));
#262=IFCALIGNMENTHORIZONTALSEGMENT($,$,#261,1.5707963267949,20.,20.,41.25457763,$,.CIRCULARARC.);
#263=IFCALIGNMENTSEGMENT('0cksjggHT9CvFsaJYsvuDf',$,$,$,$,$,$,#262);
#264=IFCCARTESIANPOINT((0.,0.));
#265=IFCDIRECTION((1.,0.));
#266=IFCAXIS2PLACEMENT2D(#264,#265);
#267=IFCCIRCLE(#266,20.);
#268=IFCDIRECTION((6.12323399573677E-17,1.));
#269=IFCAXIS2PLACEMENT2D(#261,#268);
#270=IFCCURVESEGMENT(.DISCONTINUOUS.,#269,IFCLENGTHMEASURE(0.),IFCLENGTHMEASURE(41.25457763),#267);
#271=IFCPOINTBYDISTANCEEXPRESSION(IFCLENGTHMEASURE(160.477207424),$,$,$,#32);
#272=IFCAXIS2PLACEMENTLINEAR(#271,$,$);
#273=IFCLINEARPLACEMENT($,#272,#277);
#274=IFCCARTESIANPOINT((-6.45048825163394,45.6201035040023,0.));
#275=IFCDIRECTION((0.,0.,1.));
#276=IFCDIRECTION((6.12323399573677E-17,-1.,0.));
#277=IFCAXIS2PLACEMENT3D(#274,#275,#276);
#278=IFCREFERENT('3f8Z2tcTvELOg6kUcqSXHt',$,'P.C. (0+160.477)',$,$,#273,$,.STATION.);
#279=IFCPROPERTYSET('05_x$aKGHDo8mAmuiuqnJx',$,'Pset_Stationing',$,(#281));
#280=IFCRELDEFINESBYPROPERTIES('1qecfxiArAZRQIH7Z_CUPR',$,$,$,(#278),#279);
#281=IFCPROPERTYSINGLEVALUE('Station',$,IFCLENGTHMEASURE(160.477207424),$);
#282=IFCRELPOSITIONS('3Hg6KvsOD7SR3ZWtHZJi29',$,$,$,#278,(#263));
#283=IFCCARTESIANPOINT((-35.8970915470272,27.9916694780113));
#284=IFCALIGNMENTHORIZONTALSEGMENT($,$,#283,2.64966009891286,0.,0.,53.258115927,$,.LINE.);
#285=IFCALIGNMENTSEGMENT('0GOWtHv1HFOPCIQvUK8sc4',$,$,$,$,$,$,#284);
#286=IFCCARTESIANPOINT((0.,0.));
#287=IFCDIRECTION((1.,0.));
#288=IFCVECTOR(#287,1.);
#289=IFCLINE(#286,#288);
#290=IFCDIRECTION((-0.881421701261423,0.472330164763398));
#291=IFCAXIS2PLACEMENT2D(#283,#290);
#292=IFCCURVESEGMENT(.CONTINUOUS.,#291,IFCLENGTHMEASURE(0.),IFCLENGTHMEASURE(53.258115927),#289);
#293=IFCPOINTBYDISTANCEEXPRESSION(IFCLENGTHMEASURE(201.731785054),$,$,$,#32);
#294=IFCAXIS2PLACEMENTLINEAR(#293,$,$);
#295=IFCLINEARPLACEMENT($,#294,#299);
#296=IFCCARTESIANPOINT((-35.8970915473986,63.2485375289763,0.));
#297=IFCDIRECTION((0.,0.,1.));
#298=IFCDIRECTION((-0.881421701248115,-0.472330164788232,0.));
#299=IFCAXIS2PLACEMENT3D(#296,#297,#298);
#300=IFCREFERENT('0MLog9Bvf7hPisazTqmtNp',$,'P.T. (0+201.732)',$,$,#295,$,.STATION.);
#301=IFCPROPERTYSET('2CEeLK95T1Buy3mYgHRPPf',$,'Pset_Stationing',$,(#303));
#302=IFCRELDEFINESBYPROPERTIES('3kLto9mz52YuiOapH26Hp1',$,$,$,(#300),#301);
#303=IFCPROPERTYSINGLEVALUE('Station',$,IFCLENGTHMEASURE(201.731785054),$);
#304=IFCRELPOSITIONS('31Q6Zo3VHFhwFec3feSmc5',$,$,$,#300,(#285));
#305=IFCCARTESIANPOINT((-82.8399506919086,53.1470841499977));
#306=IFCALIGNMENTHORIZONTALSEGMENT($,$,#305,-0.491932554687537,19.9999999998694,19.9999999998694,22.625345658,$,.CIRCULARARC.);
#307=IFCALIGNMENTSEGMENT('1G2RrP2LD1O9kBrZ1dKZwQ',$,$,$,$,$,$,#306);
#308=IFCCARTESIANPOINT((0.,0.));
#309=IFCDIRECTION((1.,0.));
#310=IFCAXIS2PLACEMENT2D(#308,#309);
#311=IFCCIRCLE(#310,19.9999999998694);
#312=IFCDIRECTION((0.881421701256412,-0.472330164772749));
#313=IFCAXIS2PLACEMENT2D(#305,#312);
#314=IFCCURVESEGMENT(.DISCONTINUOUS.,#313,IFCLENGTHMEASURE(0.),IFCLENGTHMEASURE(22.625345658),#311);
#315=IFCPOINTBYDISTANCEEXPRESSION(IFCLENGTHMEASURE(254.989900981),$,$,$,#32);
#316=IFCAXIS2PLACEMENTLINEAR(#315,$,$);
#317=IFCLINEARPLACEMENT($,#316,#321);
#318=IFCCARTESIANPOINT((-82.8399506933816,53.1470841487994,0.));
#319=IFCDIRECTION((0.,0.,1.));
#320=IFCDIRECTION((-0.881421701261423,0.472330164763398,0.));
#321=IFCAXIS2PLACEMENT3D(#318,#319,#320);
#322=IFCREFERENT('2txo071vvDawoLWb4s7WE6',$,'P.C. (0+254.990)',$,$,#317,$,.STATION.);
#323=IFCPROPERTYSET('28eyAxcxr8G8fzc_31sb$r',$,'Pset_Stationing',$,(#325));
#324=IFCRELDEFINESBYPROPERTIES('2jAvvSJsDDKhLtt2LfdctT',$,$,$,(#322),#323);
#325=IFCPROPERTYSINGLEVALUE('Station',$,IFCLENGTHMEASURE(254.989900981),$);
#326=IFCRELPOSITIONS('2a4hSdmir8Rezi_Kx5T4Rh',$,$,$,#322,(#307));
#327=IFCCARTESIANPOINT((-93.3658924009651,71.8231087670138));
#328=IFCALIGNMENTHORIZONTALSEGMENT($,$,#327,1.51839281601611,0.,0.,86.299215339,$,.LINE.);
#329=IFCALIGNMENTSEGMENT('3sUuAm$mv1DfO9BCK2lMlH',$,$,$,$,$,$,#328);
#330=IFCCARTESIANPOINT((0.,0.));
#331=IFCDIRECTION((1.,0.));
#332=IFCVECTOR(#331,1.);
#333=IFCLINE(#330,#332);
#334=IFCDIRECTION((0.0523795296142587,0.998627250217712));
#335=IFCAXIS2PLACEMENT2D(#327,#334);
#336=IFCCURVESEGMENT(.CONTSAMEGRADIENTSAMECURVATURE.,#335,IFCLENGTHMEASURE(0.),IFCLENGTHMEASURE(86.299215339),#333);
#337=IFCPOINTBYDISTANCEEXPRESSION(IFCLENGTHMEASURE(277.615246639),$,$,$,#32);
#338=IFCAXIS2PLACEMENTLINEAR(#337,$,$);
#339=IFCLINEARPLACEMENT($,#338,#343);
#340=IFCCARTESIANPOINT((-61.4601134451187,54.7256606224962,0.));
#341=IFCDIRECTION((0.,0.,1.));
#342=IFCDIRECTION((0.802492877630972,0.596661697573727,0.));
#343=IFCAXIS2PLACEMENT3D(#340,#341,#342);
#344=IFCREFERENT('1cugWzQePBw94yJW3izipU',$,'P.T. (0+277.615)',$,$,#339,$,.STATION.);
#345=IFCPROPERTYSET('0gVxH7dYrDWu7NoE40gHGn',$,'Pset_Stationing',$,(#347));
#346=IFCRELDEFINESBYPROPERTIES('1SDccZ76L4Rft6MigF9gHY',$,$,$,(#344),#345);
#347=IFCPROPERTYSINGLEVALUE('Station',$,IFCLENGTHMEASURE(277.615246639),$);
#348=IFCRELPOSITIONS('21s7hqzFH55QkjuWCOn58x',$,$,$,#344,(#329));
#349=IFCCARTESIANPOINT((-88.8455800954252,158.003856877011));
#350=IFCALIGNMENTHORIZONTALSEGMENT($,$,#349,1.51839281598563,0.,0.,10.000000001,$,.LINE.);
#351=IFCALIGNMENTSEGMENT('0CFdttWH1BaeJGgzzlHEjP',$,$,$,$,$,$,#350);
#352=IFCCARTESIANPOINT((0.,0.));
#353=IFCDIRECTION((1.,0.));
#354=IFCVECTOR(#353,1.);
#355=IFCLINE(#352,#354);
#356=IFCDIRECTION((0.0523795296446908,0.998627250216116));
#357=IFCAXIS2PLACEMENT2D(#349,#356);
#358=IFCCURVESEGMENT(.CONTINUOUS.,#357,IFCLENGTHMEASURE(0.),IFCLENGTHMEASURE(10.000000001),#355);
#359=IFCPOINTBYDISTANCEEXPRESSION(IFCLENGTHMEASURE(363.914461978),$,$,$,#32);
#360=IFCAXIS2PLACEMENTLINEAR(#359,$,$);
#361=IFCLINEARPLACEMENT($,#360,#365);
#362=IFCCARTESIANPOINT((-88.8455800954287,158.003856876946,0.));
#363=IFCDIRECTION((0.,0.,1.));
#364=IFCDIRECTION((0.0523795296142587,0.998627250217712,0.));
#365=IFCAXIS2PLACEMENT3D(#362,#363,#364);
#366=IFCREFERENT('1kKvGVF553RBUBpBAwnD19',$,'P.I. (0+363.914)',$,$,#361,$,.STATION.);
#367=IFCPROPERTYSET('12gjGj2XbB$Pd9uyDILud$',$,'Pset_Stationing',$,(#369));
#368=IFCRELDEFINESBYPROPERTIES('0P$vjRdTX7dO2E0ORmJ3B8',$,$,$,(#366),#367);
#369=IFCPROPERTYSINGLEVALUE('Station',$,IFCLENGTHMEASURE(363.914461978),$);
#370=IFCRELPOSITIONS('0YH5B8yOHD0QNg9jmLwHgr',$,$,$,#366,(#351));
#371=IFCCARTESIANPOINT((-88.3217847989872,167.990129379003));
#372=IFCALIGNMENTHORIZONTALSEGMENT($,$,#371,1.5183672625541,0.,0.,40.596777271,$,.LINE.);
#373=IFCALIGNMENTSEGMENT('15G$$nfCv7BvEBEiFGGwih',$,$,$,$,$,$,#372);
#374=IFCCARTESIANPOINT((0.,0.));
#375=IFCDIRECTION((1.,0.));
#376=IFCVECTOR(#375,1.);
#377=IFCLINE(#374,#376);
#378=IFCDIRECTION((0.0524050479806578,0.998625911413351));
#379=IFCAXIS2PLACEMENT2D(#371,#378);
#380=IFCCURVESEGMENT(.CONTSAMEGRADIENTSAMECURVATURE.,#379,IFCLENGTHMEASURE(0.),IFCLENGTHMEASURE(40.596777271),#377);
#381=IFCPOINTBYDISTANCEEXPRESSION(IFCLENGTHMEASURE(373.914461979),$,$,$,#32);
#382=IFCAXIS2PLACEMENTLINEAR(#381,$,$);
#383=IFCLINEARPLACEMENT($,#382,#387);
#384=IFCCARTESIANPOINT((-88.321784798926,167.99012938017,0.));
#385=IFCDIRECTION((0.,0.,1.));
#386=IFCDIRECTION((0.0523795296446908,0.998627250216116,0.));
#387=IFCAXIS2PLACEMENT3D(#384,#385,#386);
#388=IFCREFERENT('1lvCBca8DDwBXAjD4khVWX',$,'P.I. (0+373.914)',$,$,#383,$,.STATION.);
#389=IFCPROPERTYSET('2TqTRvdZH1VPorxGyENWWK',$,'Pset_Stationing',$,(#391));
#390=IFCRELDEFINESBYPROPERTIES('2e_DVziyrArhbamX$JT_HD',$,$,$,(#388),#389);
#391=IFCPROPERTYSINGLEVALUE('Station',$,IFCLENGTHMEASURE(373.914461979),$);
#392=IFCRELPOSITIONS('26P5i$Adz8$vySr3J6lUF4',$,$,$,#388,(#373));
#393=IFCALIGNMENTVERTICALSEGMENT($,$,0.,5.431406253,3.,-0.101262909526646,-0.101262909526646,$,.CONSTANTGRADIENT.);
#394=IFCALIGNMENTSEGMENT('3lzweQkyzFCgpVwCrh5nlH',$,$,$,$,$,$,#393);
#395=IFCCARTESIANPOINT((0.,0.));
#396=IFCDIRECTION((1.,0.));
#397=IFCVECTOR(#396,1.);
#398=IFCLINE(#395,#397);
#399=IFCCARTESIANPOINT((0.,3.));
#400=IFCDIRECTION((0.994912008186273,-0.100747684671941));
#401=IFCAXIS2PLACEMENT2D(#399,#400);
#402=IFCCURVESEGMENT(.CONTINUOUS.,#401,IFCLENGTHMEASURE(0.),IFCLENGTHMEASURE(5.45918252901728),#398);
#403=IFCPOINTBYDISTANCEEXPRESSION(IFCLENGTHMEASURE(0.),$,$,$,#32);
#404=IFCAXIS2PLACEMENTLINEAR(#403,$,$);
#405=IFCLINEARPLACEMENT($,#404,#409);
#406=IFCCARTESIANPOINT((0.,0.,0.));
#407=IFCDIRECTION((0.,0.,1.));
#408=IFCDIRECTION((-0.183874005223543,0.982949820796084,0.));
#409=IFCAXIS2PLACEMENT3D(#406,#407,#408);
#410=IFCREFERENT('1MHfYmuf50exv8gmfWyQWL',$,'V.P.O.B. (0+000.000)',$,$,#405,$,.STATION.);
#411=IFCPROPERTYSET('0zesrw7zb8wvg_bsyOUZ$4',$,'Pset_Stationing',$,(#413));
#412=IFCRELDEFINESBYPROPERTIES('0F$4In2ML0KRElIYXIpGEe',$,$,$,(#410),#411);
#413=IFCPROPERTYSINGLEVALUE('Station',$,IFCLENGTHMEASURE(0.),$);
#414=IFCRELPOSITIONS('2ZqzArg$b45Qb156Rc82MT',$,$,$,#410,(#394));
#415=IFCALIGNMENTVERTICALSEGMENT($,$,5.431406253,16.011992981,2.45,-0.0999251000108841,-0.0999251000108841,$,.CONSTANTGRADIENT.);
#416=IFCALIGNMENTSEGMENT('13wOy2Lm19$OoDmT50agTA',$,$,$,$,$,$,#415);
#417=IFCCARTESIANPOINT((0.,0.));
#418=IFCDIRECTION((1.,0.));
#419=IFCVECTOR(#418,1.);
#420=IFCLINE(#417,#419);
#421=IFCCARTESIANPOINT((5.431406253,2.45));
#422=IFCDIRECTION((0.995044566565663,-0.0994299278293607));
#423=IFCAXIS2PLACEMENT2D(#421,#422);
#424=IFCCURVESEGMENT(.CONTINUOUS.,#423,IFCLENGTHMEASURE(0.),IFCLENGTHMEASURE(16.0917345001586),#420);
#425=IFCPOINTBYDISTANCEEXPRESSION(IFCLENGTHMEASURE(5.431406253),$,$,$,#32);
#426=IFCAXIS2PLACEMENTLINEAR(#425,$,$);
#427=IFCLINEARPLACEMENT($,#426,#431);
#428=IFCCARTESIANPOINT((-0.998694421735305,5.33879980305708,0.));
#429=IFCDIRECTION((0.,0.,1.));
#430=IFCDIRECTION((-0.183874005223543,0.982949820796084,0.));
#431=IFCAXIS2PLACEMENT3D(#428,#429,#430);
#432=IFCREFERENT('3Kr0hGpgDC7vXwxqBfv$0d',$,'P.V.I (0+005.431)',$,$,#427,$,.STATION.);
#433=IFCPROPERTYSET('1p4ttc5njF3PcLZttOC2ed',$,'Pset_Stationing',$,(#435));
#434=IFCRELDEFINESBYPROPERTIES('0pGyaLA0b6pw6BkCoOsdD1',$,$,$,(#432),#433);
#435=IFCPROPERTYSINGLEVALUE('Station',$,IFCLENGTHMEASURE(5.431406253),$);
#436=IFCRELPOSITIONS('1YZTCiXRD5t8e$BbcAy5bU',$,$,$,#432,(#416));
#437=IFCALIGNMENTVERTICALSEGMENT($,$,21.443399234,40.851013423,0.85,-0.141979341857269,-0.141979341857269,$,.CONSTANTGRADIENT.);
#438=IFCALIGNMENTSEGMENT('2iyzNn5IH9QPQT3ykucMT_',$,$,$,$,$,$,#437);
#439=IFCCARTESIANPOINT((0.,0.));
#440=IFCDIRECTION((1.,0.));
#441=IFCVECTOR(#440,1.);
#442=IFCLINE(#439,#441);
#443=IFCCARTESIANPOINT((21.443399234,0.85));
#444=IFCDIRECTION((0.990070799198654,-0.140569600462325));
#445=IFCAXIS2PLACEMENT2D(#443,#444);
#446=IFCCURVESEGMENT(.CONTINUOUS.,#445,IFCLENGTHMEASURE(0.),IFCLENGTHMEASURE(41.2606991904661),#442);
#447=IFCPOINTBYDISTANCEEXPRESSION(IFCLENGTHMEASURE(21.443399234),$,$,$,#32);
#448=IFCAXIS2PLACEMENTLINEAR(#447,$,$);
#449=IFCLINEARPLACEMENT($,#448,#453);
#450=IFCCARTESIANPOINT((-4.32999649639189,-9.88884902155701,0.));
#451=IFCDIRECTION((0.,0.,1.));
#452=IFCDIRECTION((-0.577508435994071,-0.816384717125255,0.));
#453=IFCAXIS2PLACEMENT3D(#450,#451,#452);
#454=IFCREFERENT('2l0nGUg9DDxPaNoWO5kWYY',$,'P.V.I (0+021.443)',$,$,#449,$,.STATION.);
#455=IFCPROPERTYSET('0haBi9fej3MOBClYm2To94',$,'Pset_Stationing',$,(#457));
#456=IFCRELDEFINESBYPROPERTIES('2F6O$Txnv7k8xrZZ9UwNcH',$,$,$,(#454),#455);
#457=IFCPROPERTYSINGLEVALUE('Station',$,IFCLENGTHMEASURE(21.443399234),$);
#458=IFCRELPOSITIONS('3CFw66v3XE6ezzw2Q77KTc',$,$,$,#454,(#438));
#459=IFCALIGNMENTVERTICALSEGMENT($,$,62.294412657,60.965388771,-4.95,-0.0992366344570554,-0.0992366344570554,$,.CONSTANTGRADIENT.);
#460=IFCALIGNMENTSEGMENT('0ODByEwzz0lw$SyDNhRn5L',$,$,$,$,$,$,#459);
#461=IFCCARTESIANPOINT((0.,0.));
#462=IFCDIRECTION((1.,0.));
#463=IFCVECTOR(#462,1.);
#464=IFCLINE(#461,#463);
#465=IFCCARTESIANPOINT((62.294412657,-4.95));
#466=IFCDIRECTION((0.99511211727917,-0.0987515774262195));
#467=IFCAXIS2PLACEMENT2D(#465,#466);
#468=IFCCURVESEGMENT(.CONTINUOUS.,#467,IFCLENGTHMEASURE(0.),IFCLENGTHMEASURE(61.2648441440862),#464);
#469=IFCPOINTBYDISTANCEEXPRESSION(IFCLENGTHMEASURE(62.294412657),$,$,$,#32);
#470=IFCAXIS2PLACEMENTLINEAR(#469,$,$);
#471=IFCLINEARPLACEMENT($,#470,#475);
#472=IFCCARTESIANPOINT((-43.6610750517975,40.8996888349432,0.));
#473=IFCDIRECTION((0.,0.,1.));
#474=IFCDIRECTION((-0.833562704953956,0.552424851821353,0.));
#475=IFCAXIS2PLACEMENT3D(#472,#473,#474);
#476=IFCREFERENT('3xkcjeOND8Cwbe9wnYeJCA',$,'P.V.I (0+062.294)',$,$,#471,$,.STATION.);
#477=IFCPROPERTYSET('32N0RJBVf2NR9EvTPJoJJW',$,'Pset_Stationing',$,(#479));
#478=IFCRELDEFINESBYPROPERTIES('07wCiwaD1DiQ9BhLU9aknX',$,$,$,(#476),#477);
#479=IFCPROPERTYSINGLEVALUE('Station',$,IFCLENGTHMEASURE(62.294412657),$);
#480=IFCRELPOSITIONS('3pmsWuyBj3MODSoENnCv1u',$,$,$,#476,(#460));
#481=IFCALIGNMENTVERTICALSEGMENT($,$,123.259801428,6.99135809500001,-11.,-0.143033726267743,-0.143033726267743,$,.CONSTANTGRADIENT.);
#482=IFCALIGNMENTSEGMENT('1Hf1d8ebD4sQ3sMwg6MzS2',$,$,$,$,$,$,#481);
#483=IFCCARTESIANPOINT((0.,0.));
#484=IFCDIRECTION((1.,0.));
#485=IFCVECTOR(#484,1.);
#486=IFCLINE(#483,#485);
#487=IFCCARTESIANPOINT((123.259801428,-11.));
#488=IFCDIRECTION((0.9899250062322,-0.14159266236701));
#489=IFCAXIS2PLACEMENT2D(#487,#488);
#490=IFCCURVESEGMENT(.CONTINUOUS.,#489,IFCLENGTHMEASURE(0.),IFCLENGTHMEASURE(7.06251286813144),#486);
#491=IFCPOINTBYDISTANCEEXPRESSION(IFCLENGTHMEASURE(123.259801428),$,$,$,#32);
#492=IFCAXIS2PLACEMENTLINEAR(#491,$,$);
#493=IFCLINEARPLACEMENT($,#492,#497);
#494=IFCCARTESIANPOINT((-20.0590740558048,73.1404144429601,0.));
#495=IFCDIRECTION((0.,0.,1.));
#496=IFCDIRECTION((-0.778465457655786,0.627687447091917,0.));
#497=IFCAXIS2PLACEMENT3D(#494,#495,#496);
#498=IFCREFERENT('2vNHTL$q56$8EUkn3JTDeH',$,'P.V.I (0+123.260)',$,$,#493,$,.STATION.);
#499=IFCPROPERTYSET('1PaUsXdbTFXfTlCBMeE8am',$,'Pset_Stationing',$,(#501));
#500=IFCRELDEFINESBYPROPERTIES('1bDRVNq6L4AexQ8Ra1ePMo',$,$,$,(#498),#499);
#501=IFCPROPERTYSINGLEVALUE('Station',$,IFCLENGTHMEASURE(123.259801428),$);
#502=IFCRELPOSITIONS('1MLEhCoQjBOQJpf2$CI4do',$,$,$,#498,(#482));
#503=IFCALIGNMENTVERTICALSEGMENT($,$,130.251159523,21.577275442,-12.,-0.0996418665451636,-0.0996418665451636,$,.CONSTANTGRADIENT.);
#504=IFCALIGNMENTSEGMENT('09qkHfB455GQjSsWS2p0Fs',$,$,$,$,$,$,#503);
#505=IFCCARTESIANPOINT((0.,0.));
#506=IFCDIRECTION((1.,0.));
#507=IFCVECTOR(#506,1.);
#508=IFCLINE(#505,#507);
#509=IFCCARTESIANPOINT((130.251159523,-12.));
#510=IFCDIRECTION((0.995072411683119,-0.0991508724477035));
#511=IFCAXIS2PLACEMENT2D(#509,#510);
#512=IFCCURVESEGMENT(.CONTINUOUS.,#511,IFCLENGTHMEASURE(0.),IFCLENGTHMEASURE(21.6841258873844),#508);
#513=IFCPOINTBYDISTANCEEXPRESSION(IFCLENGTHMEASURE(130.251159523),$,$,$,#32);
#514=IFCAXIS2PLACEMENTLINEAR(#513,$,$);
#515=IFCLINEARPLACEMENT($,#514,#519);
#516=IFCCARTESIANPOINT((-17.0038849551738,71.8973099929255,0.));
#517=IFCDIRECTION((0.,0.,1.));
#518=IFCDIRECTION((0.881421701241717,-0.472330164800171,0.));
#519=IFCAXIS2PLACEMENT3D(#516,#517,#518);
#520=IFCREFERENT('236ZStltP48w9dle8_1r0I',$,'P.V.I (0+130.251)',$,$,#515,$,.STATION.);
#521=IFCPROPERTYSET('1n5swAFq91mQOCGJyzchS_',$,'Pset_Stationing',$,(#523));
#522=IFCRELDEFINESBYPROPERTIES('32ntTXhKX0zuBaqisET8H6',$,$,$,(#520),#521);
#523=IFCPROPERTYSINGLEVALUE('Station',$,IFCLENGTHMEASURE(130.251159523),$);
#524=IFCRELPOSITIONS('3ILJwaMKb1XRUQXv0ofyuL',$,$,$,#520,(#504));
#525=IFCALIGNMENTVERTICALSEGMENT($,$,151.828434965,8.64877246399999,-14.15,-0.144529180898567,-0.144529180898567,$,.CONSTANTGRADIENT.);
#526=IFCALIGNMENTSEGMENT('1y3MoWVUb55REcYTLxrjgv',$,$,$,$,$,$,#525);
#527=IFCCARTESIANPOINT((0.,0.));
#528=IFCDIRECTION((1.,0.));
#529=IFCVECTOR(#528,1.);
#530=IFCLINE(#527,#529);
#531=IFCCARTESIANPOINT((151.828434965,-14.15));
#532=IFCDIRECTION((0.989716487171762,-0.143042913212742));
#533=IFCAXIS2PLACEMENT2D(#531,#532);
#534=IFCCURVESEGMENT(.CONTINUOUS.,#533,IFCLENGTHMEASURE(0.),IFCLENGTHMEASURE(8.73863634293386),#530);
#535=IFCPOINTBYDISTANCEEXPRESSION(IFCLENGTHMEASURE(151.828434965),$,$,$,#32);
#536=IFCAXIS2PLACEMENTLINEAR(#535,$,$);
#537=IFCLINEARPLACEMENT($,#536,#541);
#538=IFCCARTESIANPOINT((-37.5266568782949,70.9217582626547,0.));
#539=IFCDIRECTION((0.,0.,1.));
#540=IFCDIRECTION((-0.832644114652271,-0.55380843107968,0.));
#541=IFCAXIS2PLACEMENT3D(#538,#539,#540);
#542=IFCREFERENT('3LVWlH_iz91eUqPV$2G2BJ',$,'P.V.I (0+151.828)',$,$,#537,$,.STATION.);
#543=IFCPROPERTYSET('0vRjrXB2vC0eaHOo8zrfIo',$,'Pset_Stationing',$,(#545));
#544=IFCRELDEFINESBYPROPERTIES('3VEgYU9016DeCUN2DJ3NR1',$,$,$,(#542),#543);
#545=IFCPROPERTYSINGLEVALUE('Station',$,IFCLENGTHMEASURE(151.828434965),$);
#546=IFCRELPOSITIONS('278wXPFPTDCuJPqfasKb9O',$,$,$,#542,(#526));
#547=IFCALIGNMENTVERTICALSEGMENT($,$,160.477207429,41.25457763,-15.4,-0.0993829105892606,-0.0993829105892606,$,.CONSTANTGRADIENT.);
#548=IFCALIGNMENTSEGMENT('0VfwhiRQjDCB8Ls3vHsdKs',$,$,$,$,$,$,#547);
#549=IFCCARTESIANPOINT((0.,0.));
#550=IFCDIRECTION((1.,0.));
#551=IFCVECTOR(#550,1.);
#552=IFCLINE(#549,#551);
#553=IFCCARTESIANPOINT((160.477207429,-15.4));
#554=IFCDIRECTION((0.995097802912809,-0.0988957159744534));
#555=IFCAXIS2PLACEMENT2D(#553,#554);
#556=IFCCURVESEGMENT(.CONTINUOUS.,#555,IFCLENGTHMEASURE(0.),IFCLENGTHMEASURE(41.4578119952042),#552);
#557=IFCPOINTBYDISTANCEEXPRESSION(IFCLENGTHMEASURE(160.477207429),$,$,$,#32);
#558=IFCAXIS2PLACEMENTLINEAR(#557,$,$);
#559=IFCLINEARPLACEMENT($,#558,#563);
#560=IFCCARTESIANPOINT((-6.45048825163394,45.6201034990022,0.));
#561=IFCDIRECTION((0.,0.,1.));
#562=IFCDIRECTION((6.12323399573677E-17,-1.,0.));
#563=IFCAXIS2PLACEMENT3D(#560,#561,#562);
#564=IFCREFERENT('14cKE01o17gBpp3wi$N7Vk',$,'P.V.I (0+160.477)',$,$,#559,$,.STATION.);
#565=IFCPROPERTYSET('0ua8Vv27r4s8txmPchnmDa',$,'Pset_Stationing',$,(#567));
#566=IFCRELDEFINESBYPROPERTIES('0JKEw_GKX5eff$B8wjlYjH',$,$,$,(#564),#565);
#567=IFCPROPERTYSINGLEVALUE('Station',$,IFCLENGTHMEASURE(160.477207429),$);
#568=IFCRELPOSITIONS('1wfE5Xwd1C9B0IQNKXcODP',$,$,$,#564,(#548));
#569=IFCALIGNMENTVERTICALSEGMENT($,$,201.731785059,53.258115928,-19.5,-0.159600088209865,-0.159600088209865,$,.CONSTANTGRADIENT.);
#570=IFCALIGNMENTSEGMENT('03ytR2Wz95BOR6qRRdgRe5',$,$,$,$,$,$,#569);
#571=IFCCARTESIANPOINT((0.,0.));
#572=IFCDIRECTION((1.,0.));
#573=IFCVECTOR(#572,1.);
#574=IFCLINE(#571,#573);
#575=IFCCARTESIANPOINT((201.731785059,-19.5));
#576=IFCDIRECTION((0.987502165850348,-0.157605432777148));
#577=IFCAXIS2PLACEMENT2D(#575,#576);
#578=IFCCURVESEGMENT(.CONTINUOUS.,#577,IFCLENGTHMEASURE(0.),IFCLENGTHMEASURE(53.9321510066147),#574);
#579=IFCPOINTBYDISTANCEEXPRESSION(IFCLENGTHMEASURE(201.731785059),$,$,$,#32);
#580=IFCAXIS2PLACEMENTLINEAR(#579,$,$);
#581=IFCLINEARPLACEMENT($,#580,#585);
#582=IFCCARTESIANPOINT((-35.8970915518057,63.2485375266146,0.));
#583=IFCDIRECTION((0.,0.,1.));
#584=IFCDIRECTION((-0.881421701130032,-0.472330165008589,0.));
#585=IFCAXIS2PLACEMENT3D(#582,#583,#584);
#586=IFCREFERENT('3SEhJh42P1P8CPKpsRHs9y',$,'P.V.I (0+201.732)',$,$,#581,$,.STATION.);
#587=IFCPROPERTYSET('3AFNSOliL6DOTpBZMxjmoo',$,'Pset_Stationing',$,(#589));
#588=IFCRELDEFINESBYPROPERTIES('3L5OEqXTj40AQuAfGzoonq',$,$,$,(#586),#587);
#589=IFCPROPERTYSINGLEVALUE('Station',$,IFCLENGTHMEASURE(201.731785059),$);
#590=IFCRELPOSITIONS('1KE2qEGAjATRO$Bj7_Exgb',$,$,$,#586,(#570));
#591=IFCALIGNMENTVERTICALSEGMENT($,$,254.989900987,22.624392145,-28.,-0.106075727454644,-0.106075727454644,$,.CONSTANTGRADIENT.);
#592=IFCALIGNMENTSEGMENT('1j1poVe1r2uwSwePi6VJ3q',$,$,$,$,$,$,#591);
#593=IFCCARTESIANPOINT((0.,0.));
#594=IFCDIRECTION((1.,0.));
#595=IFCVECTOR(#594,1.);
#596=IFCLINE(#593,#595);
#597=IFCCARTESIANPOINT((254.989900987,-28.));
#598=IFCDIRECTION((0.994421007490908,-0.105483931765778));
#599=IFCAXIS2PLACEMENT2D(#597,#598);
#600=IFCCURVESEGMENT(.CONTSAMEGRADIENTSAMECURVATURE.,#599,IFCLENGTHMEASURE(0.),IFCLENGTHMEASURE(22.7513215977659),#596);
#601=IFCPOINTBYDISTANCEEXPRESSION(IFCLENGTHMEASURE(254.989900987),$,$,$,#32);
#602=IFCAXIS2PLACEMENTLINEAR(#601,$,$);
#603=IFCLINEARPLACEMENT($,#602,#607);
#604=IFCCARTESIANPOINT((-82.8399506986702,53.1470841516334,0.));
#605=IFCDIRECTION((0.,0.,1.));
#606=IFCDIRECTION((-0.881421701261423,0.472330164763398,0.));
#607=IFCAXIS2PLACEMENT3D(#604,#605,#606);
#608=IFCREFERENT('1gZ7eQiSP69QgYPtsEtlFm',$,'P.V.I (0+254.990)',$,$,#603,$,.STATION.);
#609=IFCPROPERTYSET('2EOMxfSqvBZR56hXZ$Azif',$,'Pset_Stationing',$,(#611));
#610=IFCRELDEFINESBYPROPERTIES('0FCz_vOCH1lRWo8_aDrtlm',$,$,$,(#608),#609);
#611=IFCPROPERTYSINGLEVALUE('Station',$,IFCLENGTHMEASURE(254.989900987),$);
#612=IFCRELPOSITIONS('05AvNWk7v34xAih6oIYylD',$,$,$,#608,(#592));
#613=IFCALIGNMENTVERTICALSEGMENT($,$,277.614293132,0.000953513000013118,-30.399898855,-0.106076162566415,-0.106076162566415,$,.CONSTANTGRADIENT.);
#614=IFCALIGNMENTSEGMENT('1flTZEfIvFJP0DGOPVQA0_',$,$,$,$,$,$,#613);
#615=IFCCARTESIANPOINT((0.,0.));
#616=IFCDIRECTION((1.,0.));
#617=IFCVECTOR(#616,1.);
#618=IFCLINE(#615,#617);
#619=IFCCARTESIANPOINT((277.614293132,-30.399898855));
#620=IFCDIRECTION((0.994420962104211,-0.105484359635617));
#621=IFCAXIS2PLACEMENT2D(#619,#620);
#622=IFCCURVESEGMENT(.CONTINUOUS.,#621,IFCLENGTHMEASURE(0.),IFCLENGTHMEASURE(0.000958862530407111),#618);
#623=IFCPOINTBYDISTANCEEXPRESSION(IFCLENGTHMEASURE(277.614293132),$,$,$,#32);
#624=IFCAXIS2PLACEMENTLINEAR(#623,$,$);
#625=IFCLINEARPLACEMENT($,#624,#629);
#626=IFCCARTESIANPOINT((-61.4608786412564,54.7250917196313,0.));
#627=IFCDIRECTION((0.,0.,1.));
#628=IFCDIRECTION((0.802521322774215,0.596623437766842,0.));
#629=IFCAXIS2PLACEMENT3D(#626,#627,#628);
#630=IFCREFERENT('04HIoe4LDE1QU2y0Lfdzne',$,'P.V.I (0+277.614)',$,$,#625,$,.STATION.);
#631=IFCPROPERTYSET('19VypLiZfBI81XL_FOZvmC',$,'Pset_Stationing',$,(#633));
#632=IFCRELDEFINESBYPROPERTIES('1xDjg0SqzEOANz0Yy0Bb6S',$,$,$,(#630),#631);
#633=IFCPROPERTYSINGLEVALUE('Station',$,IFCLENGTHMEASURE(277.614293132),$);
#634=IFCRELPOSITIONS('3WyJ6jzNT5cPqq1uMcbpM1',$,$,$,#630,(#614));
#635=IFCALIGNMENTVERTICALSEGMENT($,$,277.615246645,0.000953513000013118,-30.4,-0.125145645626866,-0.125145645626866,$,.CONSTANTGRADIENT.);
#636=IFCALIGNMENTSEGMENT('1HwmV6HSH44xDR4U_GpgnT',$,$,$,$,$,$,#635);
#637=IFCCARTESIANPOINT((0.,0.));
#638=IFCDIRECTION((1.,0.));
#639=IFCVECTOR(#638,1.);
#640=IFCLINE(#637,#639);
#641=IFCCARTESIANPOINT((277.615246645,-30.4));
#642=IFCDIRECTION((0.992260079638173,-0.124177028296085));
#643=IFCAXIS2PLACEMENT2D(#641,#642);
#644=IFCCURVESEGMENT(.CONTSAMEGRADIENTSAMECURVATURE.,#643,IFCLENGTHMEASURE(0.),IFCLENGTHMEASURE(0.000960950681761596),#640);
#645=IFCPOINTBYDISTANCEEXPRESSION(IFCLENGTHMEASURE(277.615246645),$,$,$,#32);
#646=IFCAXIS2PLACEMENTLINEAR(#645,$,$);
#647=IFCLINEARPLACEMENT($,#646,#651);
#648=IFCCARTESIANPOINT((-61.4601134403037,54.7256606260762,0.));
#649=IFCDIRECTION((0.,0.,1.));
#650=IFCDIRECTION((0.802492877451972,0.596661697814477,0.));
#651=IFCAXIS2PLACEMENT3D(#648,#649,#650);
#652=IFCREFERENT('3rQ6Sh0vT9184qTcxj2EIL',$,'P.V.I (0+277.615)',$,$,#647,$,.STATION.);
#653=IFCPROPERTYSET('2guMbj2DjAhhWsagTXhX0L',$,'Pset_Stationing',$,(#655));
#654=IFCRELDEFINESBYPROPERTIES('3N8WFC7sv66hPxh4ndjNFI',$,$,$,(#652),#653);
#655=IFCPROPERTYSINGLEVALUE('Station',$,IFCLENGTHMEASURE(277.615246645),$);
#656=IFCRELPOSITIONS('0tvMxF48nEa9mY15gAGXW1',$,$,$,#652,(#636));
#657=IFCALIGNMENTVERTICALSEGMENT($,$,277.616200158,86.298261823,-30.400119328,-0.125145981435302,-0.125145981435302,$,.CONSTANTGRADIENT.);
#658=IFCALIGNMENTSEGMENT('1Y_BxpwS14mw$dfrscZGml',$,$,$,$,$,$,#657);
#659=IFCCARTESIANPOINT((0.,0.));
#660=IFCDIRECTION((1.,0.));
#661=IFCVECTOR(#660,1.);
#662=IFCLINE(#659,#661);
#663=IFCCARTESIANPOINT((277.616200158,-30.400119328));
#664=IFCDIRECTION((0.992260038581433,-0.124177356367304));
#665=IFCAXIS2PLACEMENT2D(#663,#664);
#666=IFCCURVESEGMENT(.CONTINUOUS.,#665,IFCLENGTHMEASURE(0.),IFCLENGTHMEASURE(86.9714172369319),#662);
#667=IFCPOINTBYDISTANCEEXPRESSION(IFCLENGTHMEASURE(277.616200158),$,$,$,#32);
#668=IFCAXIS2PLACEMENTLINEAR(#667,$,$);
#669=IFCLINEARPLACEMENT($,#668,#673);
#670=IFCCARTESIANPOINT((-93.3658424560884,71.8240609770708,0.));
#671=IFCDIRECTION((0.,0.,1.));
#672=IFCDIRECTION((0.0523795296142587,0.998627250217712,0.));
#673=IFCAXIS2PLACEMENT3D(#670,#671,#672);
#674=IFCREFERENT('3NLAGarMTAiOsug684jE3e',$,'P.V.I (0+277.616)',$,$,#669,$,.STATION.);
#675=IFCPROPERTYSET('0LgRiOXgTFthbhWoSjUrhc',$,'Pset_Stationing',$,(#677));
#676=IFCRELDEFINESBYPROPERTIES('2AWHI9K7z62fpxPcLik_w9',$,$,$,(#674),#675);
#677=IFCPROPERTYSINGLEVALUE('Station',$,IFCLENGTHMEASURE(277.616200158),$);
#678=IFCRELPOSITIONS('1HPwxhkpvFe8BDmEHnKz2A',$,$,$,#674,(#658));
#679=IFCALIGNMENTVERTICALSEGMENT($,$,363.914461981,18.167206704,-41.2,0.,0.,$,.CONSTANTGRADIENT.);
#680=IFCALIGNMENTSEGMENT('3gBdpAMIDFDOdUF3V7CGPM',$,$,$,$,$,$,#679);
#681=IFCCARTESIANPOINT((0.,0.));
#682=IFCDIRECTION((1.,0.));
#683=IFCVECTOR(#682,1.);
#684=IFCLINE(#681,#683);
#685=IFCCARTESIANPOINT((363.914461981,-41.2));
#686=IFCDIRECTION((1.,0.));
#687=IFCAXIS2PLACEMENT2D(#685,#686);
#688=IFCCURVESEGMENT(.CONTSAMEGRADIENTSAMECURVATURE.,#687,IFCLENGTHMEASURE(0.),IFCLENGTHMEASURE(18.167206704),#684);
#689=IFCPOINTBYDISTANCEEXPRESSION(IFCLENGTHMEASURE(363.914461981),$,$,$,#32);
#690=IFCAXIS2PLACEMENTLINEAR(#689,$,$);
#691=IFCLINEARPLACEMENT($,#690,#695);
#692=IFCCARTESIANPOINT((-88.8455800952715,158.003856879941,0.));
#693=IFCDIRECTION((0.,0.,1.));
#694=IFCDIRECTION((0.0523795296142587,0.998627250217712,0.));
#695=IFCAXIS2PLACEMENT3D(#692,#693,#694);
#696=IFCREFERENT('0YfiM5w$r8puLLR6WQTO7c',$,'P.V.I (0+363.914)',$,$,#691,$,.STATION.);
#697=IFCPROPERTYSET('1hrNM7eBf6RBruMFojvb7D',$,'Pset_Stationing',$,(#699));
#698=IFCRELDEFINESBYPROPERTIES('2zCjyDObzCL8k2GX6L6Q9Z',$,$,$,(#696),#697);
#699=IFCPROPERTYSINGLEVALUE('Station',$,IFCLENGTHMEASURE(363.914461981),$);
#700=IFCRELPOSITIONS('2u8d3DLgX6IhpH692Dpqv$',$,$,$,#696,(#680));
#701=IFCALIGNMENTVERTICALSEGMENT($,$,382.081668685,0.0217925129999799,-41.2,0.,0.,$,.CONSTANTGRADIENT.);
#702=IFCALIGNMENTSEGMENT('32qA3a1K53BfvDMS0jGU2n',$,$,$,$,$,$,#701);
#703=IFCCARTESIANPOINT((0.,0.));
#704=IFCDIRECTION((1.,0.));
#705=IFCVECTOR(#704,1.);
#706=IFCLINE(#703,#705);
#707=IFCCARTESIANPOINT((382.081668685,-41.2));
#708=IFCDIRECTION((1.,0.));
#709=IFCAXIS2PLACEMENT2D(#707,#708);
#710=IFCCURVESEGMENT(.CONTINUOUS.,#709,IFCLENGTHMEASURE(0.),IFCLENGTHMEASURE(0.0217925129999799),#706);
#711=IFCPOINTBYDISTANCEEXPRESSION(IFCLENGTHMEASURE(382.081668685),$,$,$,#32);
#712=IFCAXIS2PLACEMENTLINEAR(#711,$,$);
#713=IFCLINEARPLACEMENT($,#712,#717);
#714=IFCCARTESIANPOINT((-87.8937819396913,176.146113619483,0.));
#715=IFCDIRECTION((0.,0.,1.));
#716=IFCDIRECTION((0.0524050479806578,0.998625911413351,0.));
#717=IFCAXIS2PLACEMENT3D(#714,#715,#716);
#718=IFCREFERENT('0bYBFabnz3Pg3Ql9oqLNYw',$,'P.V.I (0+382.082)',$,$,#713,$,.STATION.);
#719=IFCPROPERTYSET('1fwC_y5KDBsem64wEfQkVq',$,'Pset_Stationing',$,(#721));
#720=IFCRELDEFINESBYPROPERTIES('0DN_zFe5X9OuhYCecLZgv1',$,$,$,(#718),#719);
#721=IFCPROPERTYSINGLEVALUE('Station',$,IFCLENGTHMEASURE(382.081668685),$);
#722=IFCRELPOSITIONS('0L1pycquf19AE3rjV8dWsx',$,$,$,#718,(#702));
#723=IFCALIGNMENTVERTICALSEGMENT($,$,382.103461198,0.0217925130000367,-41.2,0.435850239024103,0.435850239024103,$,.CONSTANTGRADIENT.);
#724=IFCALIGNMENTSEGMENT('3Qz$aaBIr4qxGB0QQrULeU',$,$,$,$,$,$,#723);
#725=IFCCARTESIANPOINT((0.,0.));
#726=IFCDIRECTION((1.,0.));
#727=IFCVECTOR(#726,1.);
#728=IFCLINE(#725,#727);
#729=IFCCARTESIANPOINT((382.103461198,-41.2));
#730=IFCDIRECTION((0.916711812226337,0.399549062475067));
#731=IFCAXIS2PLACEMENT2D(#729,#730);
#732=IFCCURVESEGMENT(.CONTINUOUS.,#731,IFCLENGTHMEASURE(0.),IFCLENGTHMEASURE(0.0237724797579636),#728);
#733=IFCPOINTBYDISTANCEEXPRESSION(IFCLENGTHMEASURE(382.103461198),$,$,$,#32);
#734=IFCAXIS2PLACEMENTLINEAR(#733,$,$);
#735=IFCLINEARPLACEMENT($,#734,#739);
#736=IFCCARTESIANPOINT((-87.8926399020019,176.16787618764,0.));
#737=IFCDIRECTION((0.,0.,1.));
#738=IFCDIRECTION((0.0524050479806578,0.998625911413351,0.));
#739=IFCAXIS2PLACEMENT3D(#736,#737,#738);
#740=IFCREFERENT('3D5MzXQX14gO8OU6F5qBWj',$,'P.V.I (0+382.103)',$,$,#735,$,.STATION.);
#741=IFCPROPERTYSET('2F8l8Ik4n6RggzUZEXDish',$,'Pset_Stationing',$,(#743));
#742=IFCRELDEFINESBYPROPERTIES('3mS8XjKyf7GPbWymr$hY9M',$,$,$,(#740),#741);
#743=IFCPROPERTYSINGLEVALUE('Station',$,IFCLENGTHMEASURE(382.103461198),$);
#744=IFCRELPOSITIONS('03nESADErAMwBOX0LyYdIa',$,$,$,#740,(#724));
#745=IFCALIGNMENTVERTICALSEGMENT($,$,382.125253711,32.3859855429999,-41.190501728,-0.000293283401469771,-0.000293283401469771,$,.CONSTANTGRADIENT.);
#746=IFCALIGNMENTSEGMENT('0W_EeWpbb4uPtJu38GyHVN',$,$,$,$,$,$,#745);
#747=IFCCARTESIANPOINT((0.,0.));
#748=IFCDIRECTION((1.,0.));
#749=IFCVECTOR(#748,1.);
#750=IFCLINE(#747,#749);
#751=IFCCARTESIANPOINT((382.125253711,-41.190501728));
#752=IFCDIRECTION((0.999999956992426,-0.000293283388856364));
#753=IFCAXIS2PLACEMENT2D(#751,#752);
#754=IFCCURVESEGMENT(.CONTSAMEGRADIENTSAMECURVATURE.,#753,IFCLENGTHMEASURE(0.),IFCLENGTHMEASURE(32.3859869358427),#750);
#755=IFCPOINTBYDISTANCEEXPRESSION(IFCLENGTHMEASURE(382.125253711),$,$,$,#32);
#756=IFCAXIS2PLACEMENTLINEAR(#755,$,$);
#757=IFCLINEARPLACEMENT($,#756,#761);
#758=IFCCARTESIANPOINT((-87.8914978643126,176.189638755796,0.));
#759=IFCDIRECTION((0.,0.,1.));
#760=IFCDIRECTION((0.0524050479806578,0.998625911413351,0.));
#761=IFCAXIS2PLACEMENT3D(#758,#759,#760);
#762=IFCREFERENT('0Y3wAqpDLExwgcOcks9ags',$,'P.V.I (0+382.125)',$,$,#757,$,.STATION.);
#763=IFCPROPERTYSET('3zoe9O5rTFf8UEJfRxwy1b',$,'Pset_Stationing',$,(#765));
#764=IFCRELDEFINESBYPROPERTIES('3AjYMLrMb7aBdTeeNtVubp',$,$,$,(#762),#763);
#765=IFCPROPERTYSINGLEVALUE('Station',$,IFCLENGTHMEASURE(382.125253711),$);
#766=IFCRELPOSITIONS('0vOqyI9GbFoQEc4KnA7AYx',$,$,$,#762,(#746));
#767=IFCCARTESIANPOINT((0.,0.,3.));
#768=IFCCARTESIANPOINT((-0.998694421723485,5.33879980299389,2.45));
#769=IFCCARTESIANPOINT((-2.12229403015226,9.17391346942168,2.05));
#770=IFCCARTESIANPOINT((-3.98594590369612,12.7090760694409,1.65));
#771=IFCCARTESIANPOINT((-6.51524107158184,15.8031411729171,1.25));
#772=IFCCARTESIANPOINT((-9.60919380281121,18.332573799009,0.85));
#773=IFCCARTESIANPOINT((-43.6610750518739,40.8996888349939,-4.95));
#774=IFCCARTESIANPOINT((-47.4960463345051,44.2111029249209,-5.45416666663359));
#775=IFCCARTESIANPOINT((-50.3757949285209,48.3799775979132,-5.95833333326718));
#776=IFCCARTESIANPOINT((-52.1154952021316,53.1387495998351,-6.46249999990076));
#777=IFCCARTESIANPOINT((-52.6034911544994,58.1819953757513,-6.96666666653435));
#778=IFCCARTESIANPOINT((-51.808462635614,63.1860335111851,-7.47083333316794));
#779=IFCCARTESIANPOINT((-49.7814355064183,67.8296989837836,-7.97499999980153));
#780=IFCCARTESIANPOINT((-46.6525067379698,71.8149559104058,-8.47916666643511));
#781=IFCCARTESIANPOINT((-42.6224946416914,74.8860258387285,-8.9833333330687));
#782=IFCCARTESIANPOINT((-37.9500501072034,76.8458039075194,-9.48749999970229));
#783=IFCCARTESIANPOINT((-32.9350560922176,77.5685092674394,-9.99166666633588));
#784=IFCCARTESIANPOINT((-27.8993807798252,77.0077578428609,-10.4958333329695));
#785=IFCCARTESIANPOINT((-23.1662197047845,75.1995393160032,-10.9999999996031));
#786=IFCCARTESIANPOINT((-17.0038849590346,71.8973099949944,-11.9999999992848));
#787=IFCCARTESIANPOINT((-12.6481802761555,68.7428627887566,-12.5374999995018));
#788=IFCCARTESIANPOINT((-9.29047564044595,64.5418486189155,-13.0749999995018));
#789=IFCCARTESIANPOINT((-7.17355576809496,59.598029171786,-13.6124999995018));
#790=IFCCARTESIANPOINT((-6.45048825535923,54.2688759700104,-14.1499999995018));
#791=IFCCARTESIANPOINT((-6.45048825163394,45.620103504014,-15.3999999992774));
#792=IFCCARTESIANPOINT((-7.11163356713951,40.5202310054447,-15.9124999995031));
#793=IFCCARTESIANPOINT((-9.05135820154101,35.7575341882184,-16.4249999995031));
#794=IFCCARTESIANPOINT((-12.1414181692526,31.6468965214444,-16.9374999995031));
#795=IFCCARTESIANPOINT((-16.1775156026706,28.4600908889261,-17.4499999995031));
#796=IFCCARTESIANPOINT((-20.8928058100864,26.4078114522563,-17.9624999995031));
#797=IFCCARTESIANPOINT((-25.9755395893008,25.6257437051099,-18.4749999995031));
#798=IFCCARTESIANPOINT((-31.0896743768826,26.1655936902098,-18.9874999995031));
#799=IFCCARTESIANPOINT((-35.8970915470272,27.9916694780113,-19.4999999995031));
#800=IFCCARTESIANPOINT((-82.8399506937712,53.1470841490082,-27.9999999990424));
#801=IFCCARTESIANPOINT((-87.3840874340385,56.4835906216176,-28.5999999992598));
#802=IFCCARTESIANPOINT((-90.8166090184823,60.9556426945201,-29.1999999991561));
#803=IFCCARTESIANPOINT((-92.8647891255096,66.2079195737606,-29.7999999990524));
#804=IFCCARTESIANPOINT((-93.3658924009651,71.8231087670138,-30.3999999993635));
#805=IFCCARTESIANPOINT((-88.8455800954252,158.003856877011,-41.1999999996246));
#806=IFCCARTESIANPOINT((-88.3217847989872,167.990129379003,-41.2));
#807=IFCCARTESIANPOINT((-86.1943087382242,208.531123082008,-41.1999999999985));
#808=IFCPOLYLINE((#767,#768,#769,#770,#771,#772,#773,#774,#775,#776,#777,#778,#779,#780,#781,#782,#783,#784,#785,#786,#787,#788,#789,#790,#791,#792,#793,#794,#795,#796,#797,#798,#799,#800,#801,#802,#803,#804,#805,#806,#807));
#809=IFCSWEPTDISKSOLID(#808,0.2,$,$,$);
#810=IFCSHAPEREPRESENTATION(#12,'Body','SweptSolid',(#809));
#811=IFCRELREFERENCEDINSPATIALSTRUCTURE('3qNhb8Q6L9fO6ch2tFnB9p',$,$,$,(#19),#13);
ENDSEC;
END-ISO-10303-21;
